Coordinates
version=1
nRows=13
nColumns=40
inDegrees=yes

Units are S.I. units (second, meters, Newtons, ...)
If the header above contains a line with 'inDegrees', this indicates whether rotational values are in degrees (yes) or radians (no).

endheader
time	pelvis_tilt	pelvis_list	pelvis_rotation	pelvis_tx	pelvis_ty	pelvis_tz	hip_flexion_r	hip_adduction_r	hip_rotation_r	knee_angle_r	knee_angle_r_beta	ankle_angle_r	subtalar_angle_r	mtp_angle_r	hip_flexion_l	hip_adduction_l	hip_rotation_l	knee_angle_l	knee_angle_l_beta	ankle_angle_l	subtalar_angle_l	mtp_angle_l	lumbar_extension	lumbar_bending	lumbar_rotation	arm_flex_r	arm_add_r	arm_rot_r	elbow_flex_r	pro_sup_r	wrist_flex_r	wrist_dev_r	arm_flex_l	arm_add_l	arm_rot_l	elbow_flex_l	pro_sup_l	wrist_flex_l	wrist_dev_l
      3.77500000	    -22.48879988	     -2.51137068	      6.03137285	     -0.41686586	      0.77034859	     -0.78598303	     67.78042837	      1.65956499	    -11.22327395	     72.66821080	      1.26829954	     20.56727212	      0.00000000	      0.00000000	     40.61561735	    -11.42868655	      2.89717288	     92.09034676	      1.60727976	    -22.78491232	      0.00000000	      0.00000000	    -15.85806733	    -24.95697595	    -22.76534846	     73.13615336	    -16.62189026	     12.39390234	     64.25043389	     87.51322596	      0.00000000	      0.00000000	     89.95531059	      9.79245533	     31.76984631	     42.66004875	     71.39466462	      0.00000000	      0.00000000
      3.78000000	    -22.48878161	     -2.47422273	      6.01197079	     -0.41666502	      0.77114217	     -0.78601546	     67.67545674	      1.62887446	    -11.21625729	     72.51299139	      1.26559045	     20.42370192	      0.00000000	      0.00000000	     40.63032872	    -11.39307251	      2.87251872	     92.05174341	      1.60660600	    -22.83584571	      0.00000000	      0.00000000	    -15.79274076	    -25.06235000	    -22.76114117	     73.02693570	    -16.59533658	     12.26986177	     64.20936013	     87.51634656	      0.00000000	      0.00000000	     89.95531686	      9.86701494	     32.03351753	     42.59316166	     68.80704525	      0.00000000	      0.00000000
      3.78500000	    -22.46435964	     -2.44562004	      6.03179505	     -0.41636380	      0.77205883	     -0.78621424	     67.51445549	      1.55441866	    -11.24813290	     72.33628003	      1.26250626	     20.39565858	      0.00000000	      0.00000000	     40.61005381	    -11.30108550	      2.86381207	     92.00225004	      1.60574218	    -22.70306124	      0.00000000	      0.00000000	    -15.75039180	    -24.99807465	    -22.79260180	     73.03263155	    -16.58988834	     12.62860489	     64.28648508	     85.30537519	      0.00000000	      0.00000000	     89.95563638	      9.86626941	     31.87337835	     42.45806778	     67.75893524	      0.00000000	      0.00000000
      3.79000000	    -22.44048061	     -2.43562260	      5.92828580	     -0.41610081	      0.77302768	     -0.78612062	     67.35378311	      1.60396902	    -11.27115715	     72.11932049	      1.25871960	     20.22269918	      0.00000000	      0.00000000	     40.61235041	    -11.38703851	      2.79383124	     91.95274496	      1.60487816	    -22.92744403	      0.00000000	      0.00000000	    -15.74977650	    -25.04072225	    -22.88417612	     73.04290456	    -16.34846565	     12.24886354	     64.18502300	     87.51658992	      0.00000000	      0.00000000	     89.95552529	      9.71149151	     31.94325847	     42.73696750	     67.82498966	      0.00000000	      0.00000000
      3.79500000	    -22.38507990	     -2.37859644	      5.79409814	     -0.41566298	      0.77405205	     -0.78605303	     67.12893385	      1.71709015	    -11.15335264	     71.86796245	      1.25433257	     20.18969798	      0.00000000	      0.00000000	     40.53325589	    -11.43402127	      2.64097400	     91.87370043	      1.60349857	    -23.33411896	      0.00000000	      0.00000000	    -15.58336824	    -25.07978334	    -22.42722404	     72.85954794	    -16.58369864	     12.13192401	     64.37534485	     87.20509971	      0.00000000	      0.00000000	     89.95537584	      9.82285418	     32.38014830	     42.63201826	     67.11266845	      0.00000000	      0.00000000
      3.80000000	    -22.37384614	     -2.32322904	      5.77164013	     -0.41537609	      0.77498031	     -0.78624672	     66.99050277	      1.60892757	    -11.25620355	     71.71364462	      1.25163922	     20.09644669	      0.00000000	      0.00000000	     40.53777536	    -11.32725683	      2.67454380	     91.90308023	      1.60401134	    -23.18816619	      0.00000000	      0.00000000	    -15.48311558	    -25.08435717	    -22.40590725	     72.85740540	    -16.53154442	     12.18036108	     64.30704066	     87.28293939	      0.00000000	      0.00000000	     89.95518735	      9.80418677	     32.30843241	     42.55591777	     67.15745394	      0.00000000	      0.00000000
      3.80500000	    -22.34048372	     -2.33157682	      5.75741667	     -0.41512841	      0.77599216	     -0.78633035	     66.82174885	      1.59743155	    -11.30159623	     71.52466361	      1.24834088	     19.90148768	      0.00000000	      0.00000000	     40.54024781	    -11.31650218	      2.71953875	     91.90305751	      1.60401095	    -22.99901471	      0.00000000	      0.00000000	    -15.43213965	    -25.01352289	    -22.38863014	     72.90107121	    -16.46187745	     12.18198284	     64.13577672	     87.50071666	      0.00000000	      0.00000000	     89.95517469	      9.79264143	     32.23471148	     42.58313099	     65.69122621	      0.00000000	      0.00000000
      3.81000000	    -22.34133929	     -2.28451104	      5.73505799	     -0.41485302	      0.77706395	     -0.78645355	     66.66127595	      1.54289798	    -11.33001548	     71.29081137	      1.24425938	     19.83822013	      0.00000000	      0.00000000	     40.55488186	    -11.26625259	      2.65554680	     91.86734378	      1.60338762	    -23.01229484	      0.00000000	      0.00000000	    -15.34695464	    -25.02955534	    -22.35993231	     72.86546995	    -16.44416150	     12.19355457	     64.18375563	     87.50549879	      0.00000000	      0.00000000	     89.95516784	      9.78883876	     32.24214169	     42.55089487	     65.75001117	      0.00000000	      0.00000000
      3.81500000	    -22.28481260	     -2.21200765	      5.53919981	     -0.41432914	      0.77815831	     -0.78641686	     66.44044024	      1.61669343	    -11.31204473	     71.06302745	      1.24028381	     19.72245871	      0.00000000	      0.00000000	     40.43588674	    -11.31839817	      2.45365956	     91.83984656	      1.60290771	    -23.05735266	      0.00000000	      0.00000000	    -15.26634386	    -25.08947053	    -22.30233808	     72.87198088	    -16.28697729	     12.22969394	     64.21551897	     87.50967911	      0.00000000	      0.00000000	     89.95532486	      9.67220607	     32.19047389	     42.56772850	     65.81576262	      0.00000000	      0.00000000
      3.82000000	    -22.24605554	     -2.15715572	      5.47488374	     -0.41390842	      0.77924061	     -0.78648577	     66.24960741	      1.61344982	    -11.29176771	     70.86837756	      1.23688652	     19.63493058	      0.00000000	      0.00000000	     40.39911166	    -11.25913385	      2.44220883	     91.80544224	      1.60230724	    -23.00468282	      0.00000000	      0.00000000	    -15.14373089	    -25.10197142	    -22.10633140	     72.82143411	    -16.35220903	     12.18868302	     64.17860979	     87.50660300	      0.00000000	      0.00000000	     89.95498920	      9.71329407	     32.23402135	     42.55836455	     65.86487229	      0.00000000	      0.00000000
      3.82500000	    -22.23084933	     -2.17997122	      5.49605066	     -0.41374557	      0.78046481	     -0.78664871	     66.06294952	      1.58864051	    -11.34259005	     70.56647886	      1.23161740	     19.45157227	      0.00000000	      0.00000000	     40.43483544	    -11.23266127	      2.50676350	     91.77504586	      1.60177672	    -23.19745000	      0.00000000	      0.00000000	    -15.06090448	    -24.98245045	    -22.02812227	     72.82986180	    -16.36480126	     12.19120712	     64.16947824	     87.50150682	      0.00000000	      0.00000000	     89.95507740	      9.71912622	     32.29143211	     42.49983663	     65.99639917	      0.00000000	      0.00000000
      3.83000000	    -22.23933946	     -2.15933429	      5.44439289	     -0.41346394	      0.78157081	     -0.78672648	     65.91842293	      1.57272808	    -11.38893151	     70.34160475	      1.22769260	     19.36256073	      0.00000000	      0.00000000	     40.48071483	    -11.20138368	      2.50473493	     91.79605319	      1.60214337	    -23.25477243	      0.00000000	      0.00000000	    -14.99024059	    -25.02576551	    -22.11457324	     72.80868450	    -16.28433580	     12.21084453	     64.17613666	     87.50551926	      0.00000000	      0.00000000	     89.95529937	      9.68654214	     32.29579547	     42.49297069	     66.04059326	      0.00000000	      0.00000000
      3.83500000	    -22.22227640	     -2.09284711	      5.41172235	     -0.41306297	      0.78274658	     -0.78688000	     65.73071641	      1.50816467	    -11.41455551	     70.11765190	      1.22378389	     19.26367293	      0.00000000	      0.00000000	     40.48194414	    -11.10851393	      2.50386332	     91.78739498	      1.60199225	    -23.29488860	      0.00000000	      0.00000000	    -14.82311853	    -25.00916949	    -21.92931506	     72.77088313	    -16.31741420	     12.17548480	     64.13733167	     87.50157264	      0.00000000	      0.00000000	     89.95494938	      9.67061215	     32.30363537	     42.47576717	     66.08061862	      0.00000000	      0.00000000
